<svg width="16" height="12" viewBox="0 0 16 12" fill="none" xmlns="http://www.w3.org/2000/svg">
<path d="M8.6875 8.08203C8.6875 7.50911 8.73958 6.89714 8.84375 6.24609C8.96094 5.58203 9.13672 4.93099 9.37109 4.29297C9.61849 3.64193 9.93099 3.02995 10.3086 2.45703C10.6992 1.87109 11.168 1.36979 11.7148 0.953125L13.8438 2.4375C13.4792 2.85417 13.2057 3.2513 13.0234 3.62891C12.8411 4.00651 12.6979 4.38411 12.5938 4.76172C12.9844 4.82682 13.349 4.96354 13.6875 5.17188C14.026 5.36719 14.319 5.61458 14.5664 5.91406C14.8138 6.20052 15.0091 6.53255 15.1523 6.91016C15.2956 7.27474 15.3672 7.66536 15.3672 8.08203C15.3672 8.53776 15.276 8.96745 15.0938 9.37109C14.9245 9.76172 14.6836 10.1133 14.3711 10.4258C14.0716 10.7253 13.7201 10.9661 13.3164 11.1484C12.9128 11.3177 12.4896 11.4023 12.0469 11.4023C11.5781 11.4023 11.1354 11.3177 10.7188 11.1484C10.3151 10.9661 9.95703 10.7253 9.64453 10.4258C9.34505 10.1133 9.11068 9.76172 8.94141 9.37109C8.77214 8.96745 8.6875 8.53776 8.6875 8.08203ZM0.679688 8.08203C0.679688 7.50911 0.731771 6.89714 0.835938 6.24609C0.953125 5.58203 1.12891 4.93099 1.36328 4.29297C1.61068 3.64193 1.92969 3.02995 2.32031 2.45703C2.71094 1.87109 3.17969 1.36979 3.72656 0.953125L5.83594 2.4375C5.47135 2.85417 5.19792 3.2513 5.01562 3.62891C4.84635 4.00651 4.70964 4.38411 4.60547 4.76172C4.99609 4.82682 5.36068 4.96354 5.69922 5.17188C6.03776 5.36719 6.32422 5.61458 6.55859 5.91406C6.80599 6.20052 7.0013 6.53255 7.14453 6.91016C7.28776 7.27474 7.35938 7.66536 7.35938 8.08203C7.35938 8.53776 7.26823 8.96745 7.08594 9.37109C6.91667 9.76172 6.67578 10.1133 6.36328 10.4258C6.0638 10.7253 5.71224 10.9661 5.30859 11.1484C4.90495 11.3177 4.48177 11.4023 4.03906 11.4023C3.57031 11.4023 3.1276 11.3177 2.71094 11.1484C2.30729 10.9661 1.95573 10.7253 1.65625 10.4258C1.35677 10.1133 1.11589 9.76172 0.933594 9.37109C0.764323 8.96745 0.679688 8.53776 0.679688 8.08203Z" fill="black"/>
</svg>
